<svg xmlns="http://www.w3.org/2000/svg" xmlns:xlink="http://www.w3.org/1999/xlink" width="400" zoomAndPan="magnify" viewBox="0 0 300 187.499995" height="250" preserveAspectRatio="xMidYMid meet" version="1.2"><defs><clipPath id="3d6062ec6f"><path d="M 37.421875 56.101562 L 67 56.101562 L 67 75 L 37.421875 75 Z M 37.421875 56.101562 "/></clipPath><clipPath id="3365f41fb7"><path d="M 37.421875 64 L 68 64 L 68 130.902344 L 37.421875 130.902344 Z M 37.421875 64 "/></clipPath><clipPath id="962f875ee2"><path d="M 65 96 L 96 96 L 96 130.902344 L 65 130.902344 Z M 65 96 "/></clipPath><clipPath id="791498eef0"><path d="M 93 72 L 109.976562 72 L 109.976562 99 L 93 99 Z M 93 72 "/></clipPath><clipPath id="8b05f9d677"><path d="M 79 64 L 109.976562 64 L 109.976562 83 L 79 83 Z M 79 64 "/></clipPath><clipPath id="a3b664d999"><path d="M 132.761719 77.085938 L 171.660156 77.085938 L 171.660156 114.488281 L 132.761719 114.488281 Z M 132.761719 77.085938 "/></clipPath><clipPath id="af0128b9a5"><path d="M 201.148438 56.101562 L 275.949219 56.101562 L 275.949219 130.902344 L 201.148438 130.902344 Z M 201.148438 56.101562 "/></clipPath><clipPath id="aa638f873a"><path d="M 238.550781 56.101562 C 217.894531 56.101562 201.148438 72.84375 201.148438 93.5 C 201.148438 114.15625 217.894531 130.902344 238.550781 130.902344 C 259.207031 130.902344 275.949219 114.15625 275.949219 93.5 C 275.949219 72.84375 259.207031 56.101562 238.550781 56.101562 Z M 238.550781 56.101562 "/></clipPath><linearGradient x1="0.00000823669" gradientTransform="matrix(0.29219,0,0,0.29219,201.14935,56.100397)" y1="128" x2="256.00005" gradientUnits="userSpaceOnUse" y2="128" id="fece9f90bc"><stop style="stop-color:#8c52ff;stop-opacity:1;" offset="0"/><stop style="stop-color:#8c52ff;stop-opacity:1;" offset="0.0078125"/><stop style="stop-color:#8b53ff;stop-opacity:1;" offset="0.0117188"/><stop style="stop-color:#8b54ff;stop-opacity:1;" offset="0.015625"/><stop style="stop-color:#8b54fe;stop-opacity:1;" offset="0.0195312"/><stop style="stop-color:#8b55fe;stop-opacity:1;" offset="0.0234375"/><stop style="stop-color:#8a56fe;stop-opacity:1;" offset="0.0273438"/><stop style="stop-color:#8a57fe;stop-opacity:1;" offset="0.03125"/><stop style="stop-color:#8a57fe;stop-opacity:1;" offset="0.0351562"/><stop style="stop-color:#8a58fe;stop-opacity:1;" offset="0.0390625"/><stop style="stop-color:#8a58fe;stop-opacity:1;" offset="0.046875"/><stop style="stop-color:#8959fe;stop-opacity:1;" offset="0.0546875"/><stop style="stop-color:#895afe;stop-opacity:1;" offset="0.0625"/><stop style="stop-color:#895cfd;stop-opacity:1;" offset="0.0664062"/><stop style="stop-color:#895cfd;stop-opacity:1;" offset="0.0703125"/><stop style="stop-color:#885dfd;stop-opacity:1;" offset="0.078125"/><stop style="stop-color:#885efd;stop-opacity:1;" offset="0.0859375"/><stop style="stop-color:#875ffd;stop-opacity:1;" offset="0.0898438"/><stop style="stop-color:#875ffd;stop-opacity:1;" offset="0.09375"/><stop style="stop-color:#8760fd;stop-opacity:1;" offset="0.0976562"/><stop style="stop-color:#8761fc;stop-opacity:1;" offset="0.101562"/><stop style="stop-color:#8761fc;stop-opacity:1;" offset="0.105469"/><stop style="stop-color:#8762fc;stop-opacity:1;" offset="0.109375"/><stop style="stop-color:#8662fc;stop-opacity:1;" offset="0.113281"/><stop style="stop-color:#8663fc;stop-opacity:1;" offset="0.117188"/><stop style="stop-color:#8663fc;stop-opacity:1;" offset="0.121094"/><stop style="stop-color:#8664fc;stop-opacity:1;" offset="0.125"/><stop style="stop-color:#8664fc;stop-opacity:1;" offset="0.128906"/><stop style="stop-color:#8665fc;stop-opacity:1;" offset="0.132812"/><stop style="stop-color:#8565fb;stop-opacity:1;" offset="0.136719"/><stop style="stop-color:#8566fb;stop-opacity:1;" offset="0.140625"/><stop style="stop-color:#8567fb;stop-opacity:1;" offset="0.144531"/><stop style="stop-color:#8567fb;stop-opacity:1;" offset="0.148438"/><stop style="stop-color:#8568fb;stop-opacity:1;" offset="0.15625"/><stop style="stop-color:#8569fb;stop-opacity:1;" offset="0.160156"/><stop style="stop-color:#846afb;stop-opacity:1;" offset="0.164062"/><stop style="stop-color:#846bfb;stop-opacity:1;" offset="0.171875"/><stop style="stop-color:#846cfb;stop-opacity:1;" offset="0.179688"/><stop style="stop-color:#836cfa;stop-opacity:1;" offset="0.183594"/><stop style="stop-color:#836dfa;stop-opacity:1;" offset="0.1875"/><stop style="stop-color:#836dfa;stop-opacity:1;" offset="0.191406"/><stop style="stop-color:#836efa;stop-opacity:1;" offset="0.195312"/><stop style="stop-color:#836efa;stop-opacity:1;" offset="0.203125"/><stop style="stop-color:#826ffa;stop-opacity:1;" offset="0.210938"/><stop style="stop-color:#8270fa;stop-opacity:1;" offset="0.214844"/><stop style="stop-color:#8271fa;stop-opacity:1;" offset="0.21875"/><stop style="stop-color:#8271f9;stop-opacity:1;" offset="0.222656"/><stop style="stop-color:#8172f9;stop-opacity:1;" offset="0.226562"/><stop style="stop-color:#8173f9;stop-opacity:1;" offset="0.230469"/><stop style="stop-color:#8174f9;stop-opacity:1;" offset="0.234375"/><stop style="stop-color:#8175f9;stop-opacity:1;" offset="0.238281"/><stop style="stop-color:#8075f9;stop-opacity:1;" offset="0.242188"/><stop style="stop-color:#8076f9;stop-opacity:1;" offset="0.246094"/><stop style="stop-color:#8076f9;stop-opacity:1;" offset="0.25"/><stop style="stop-color:#8077f9;stop-opacity:1;" offset="0.257812"/><stop style="stop-color:#7f78f8;stop-opacity:1;" offset="0.261719"/><stop style="stop-color:#7f78f8;stop-opacity:1;" offset="0.265625"/><stop style="stop-color:#7f79f8;stop-opacity:1;" offset="0.269531"/><stop style="stop-color:#7f79f8;stop-opacity:1;" offset="0.273437"/><stop style="stop-color:#7f7af8;stop-opacity:1;" offset="0.28125"/><stop style="stop-color:#7e7af8;stop-opacity:1;" offset="0.289063"/><stop style="stop-color:#7e7cf8;stop-opacity:1;" offset="0.292969"/><stop style="stop-color:#7e7df8;stop-opacity:1;" offset="0.296875"/><stop style="stop-color:#7d7df8;stop-opacity:1;" offset="0.300781"/><stop style="stop-color:#7d7ef7;stop-opacity:1;" offset="0.304688"/><stop style="stop-color:#7d7ef7;stop-opacity:1;" offset="0.3125"/><stop style="stop-color:#7d7ff7;stop-opacity:1;" offset="0.316406"/><stop style="stop-color:#7d80f7;stop-opacity:1;" offset="0.320312"/><stop style="stop-color:#7c81f7;stop-opacity:1;" offset="0.324219"/><stop style="stop-color:#7c81f7;stop-opacity:1;" offset="0.328125"/><stop style="stop-color:#7c82f7;stop-opacity:1;" offset="0.335937"/><stop style="stop-color:#7c83f7;stop-opacity:1;" offset="0.339844"/><stop style="stop-color:#7c83f6;stop-opacity:1;" offset="0.34375"/><stop style="stop-color:#7b84f6;stop-opacity:1;" offset="0.347656"/><stop style="stop-color:#7b84f6;stop-opacity:1;" offset="0.351563"/><stop style="stop-color:#7b85f6;stop-opacity:1;" offset="0.355469"/><stop style="stop-color:#7b85f6;stop-opacity:1;" offset="0.359375"/><stop style="stop-color:#7a86f6;stop-opacity:1;" offset="0.363281"/><stop style="stop-color:#7a87f6;stop-opacity:1;" offset="0.367188"/><stop style="stop-color:#7a87f6;stop-opacity:1;" offset="0.371094"/><stop style="stop-color:#7a88f6;stop-opacity:1;" offset="0.375"/><stop style="stop-color:#7a88f6;stop-opacity:1;" offset="0.382812"/><stop style="stop-color:#7a89f5;stop-opacity:1;" offset="0.390625"/><stop style="stop-color:#798af5;stop-opacity:1;" offset="0.394531"/><stop style="stop-color:#798bf5;stop-opacity:1;" offset="0.398437"/><stop style="stop-color:#798cf5;stop-opacity:1;" offset="0.40625"/><stop style="stop-color:#798df5;stop-opacity:1;" offset="0.414063"/><stop style="stop-color:#788ef5;stop-opacity:1;" offset="0.417969"/><stop style="stop-color:#788ef4;stop-opacity:1;" offset="0.421875"/><stop style="stop-color:#788ff4;stop-opacity:1;" offset="0.425781"/><stop style="stop-color:#778ff4;stop-opacity:1;" offset="0.429688"/><stop style="stop-color:#7790f4;stop-opacity:1;" offset="0.433594"/><stop style="stop-color:#7791f4;stop-opacity:1;" offset="0.4375"/><stop style="stop-color:#7792f4;stop-opacity:1;" offset="0.441406"/><stop style="stop-color:#7792f4;stop-opacity:1;" offset="0.445312"/><stop style="stop-color:#7792f4;stop-opacity:1;" offset="0.453125"/><stop style="stop-color:#7693f4;stop-opacity:1;" offset="0.457031"/><stop style="stop-color:#7694f3;stop-opacity:1;" offset="0.460937"/><stop style="stop-color:#7694f3;stop-opacity:1;" offset="0.46875"/><stop style="stop-color:#7695f3;stop-opacity:1;" offset="0.472656"/><stop style="stop-color:#7596f3;stop-opacity:1;" offset="0.476563"/><stop style="stop-color:#7596f3;stop-opacity:1;" offset="0.480469"/><stop style="stop-color:#7597f3;stop-opacity:1;" offset="0.484375"/><stop style="stop-color:#7598f3;stop-opacity:1;" offset="0.488281"/><stop style="stop-color:#7498f3;stop-opacity:1;" offset="0.492188"/><stop style="stop-color:#7499f3;stop-opacity:1;" offset="0.496094"/><stop style="stop-color:#749af3;stop-opacity:1;" offset="0.5"/><stop style="stop-color:#749bf3;stop-opacity:1;" offset="0.503906"/><stop style="stop-color:#749bf2;stop-opacity:1;" offset="0.507812"/><stop style="stop-color:#749bf2;stop-opacity:1;" offset="0.511719"/><stop style="stop-color:#739cf2;stop-opacity:1;" offset="0.515625"/><stop style="stop-color:#739df2;stop-opacity:1;" offset="0.519531"/><stop style="stop-color:#739df2;stop-opacity:1;" offset="0.523438"/><stop style="stop-color:#739ef2;stop-opacity:1;" offset="0.527344"/><stop style="stop-color:#739ef2;stop-opacity:1;" offset="0.53125"/><stop style="stop-color:#729ff2;stop-opacity:1;" offset="0.539062"/><stop style="stop-color:#72a0f1;stop-opacity:1;" offset="0.542969"/><stop style="stop-color:#72a0f1;stop-opacity:1;" offset="0.546875"/><stop style="stop-color:#72a0f1;stop-opacity:1;" offset="0.550781"/><stop style="stop-color:#71a1f1;stop-opacity:1;" offset="0.554687"/><stop style="stop-color:#71a1f1;stop-opacity:1;" offset="0.558594"/><stop style="stop-color:#71a2f1;stop-opacity:1;" offset="0.5625"/><stop style="stop-color:#71a3f1;stop-opacity:1;" offset="0.566406"/><stop style="stop-color:#71a4f1;stop-opacity:1;" offset="0.570313"/><stop style="stop-color:#70a4f1;stop-opacity:1;" offset="0.574219"/><stop style="stop-color:#70a5f1;stop-opacity:1;" offset="0.578125"/><stop style="stop-color:#70a5f0;stop-opacity:1;" offset="0.582031"/><stop style="stop-color:#70a6f0;stop-opacity:1;" offset="0.585938"/><stop style="stop-color:#70a6f0;stop-opacity:1;" offset="0.59375"/><stop style="stop-color:#6fa7f0;stop-opacity:1;" offset="0.597656"/><stop style="stop-color:#6fa8f0;stop-opacity:1;" offset="0.601562"/><stop style="stop-color:#6fa9f0;stop-opacity:1;" offset="0.605469"/><stop style="stop-color:#6fa9f0;stop-opacity:1;" offset="0.609375"/><stop style="stop-color:#6eaaf0;stop-opacity:1;" offset="0.613281"/><stop style="stop-color:#6eaaf0;stop-opacity:1;" offset="0.617188"/><stop style="stop-color:#6eabef;stop-opacity:1;" offset="0.625"/><stop style="stop-color:#6eacef;stop-opacity:1;" offset="0.628906"/><stop style="stop-color:#6eacef;stop-opacity:1;" offset="0.632812"/><stop style="stop-color:#6dadef;stop-opacity:1;" offset="0.636719"/><stop style="stop-color:#6daeef;stop-opacity:1;" offset="0.640625"/><stop style="stop-color:#6daeef;stop-opacity:1;" offset="0.644531"/><stop style="stop-color:#6dafef;stop-opacity:1;" offset="0.648438"/><stop style="stop-color:#6dafef;stop-opacity:1;" offset="0.652344"/><stop style="stop-color:#6db0ef;stop-opacity:1;" offset="0.65625"/><stop style="stop-color:#6cb0ee;stop-opacity:1;" offset="0.660156"/><stop style="stop-color:#6cb1ee;stop-opacity:1;" offset="0.664062"/><stop style="stop-color:#6cb1ee;stop-opacity:1;" offset="0.671875"/><stop style="stop-color:#6cb2ee;stop-opacity:1;" offset="0.675781"/><stop style="stop-color:#6bb3ee;stop-opacity:1;" offset="0.679687"/><stop style="stop-color:#6bb4ee;stop-opacity:1;" offset="0.683594"/><stop style="stop-color:#6bb4ee;stop-opacity:1;" offset="0.6875"/><stop style="stop-color:#6bb5ee;stop-opacity:1;" offset="0.691406"/><stop style="stop-color:#6bb5ee;stop-opacity:1;" offset="0.695313"/><stop style="stop-color:#6bb6ed;stop-opacity:1;" offset="0.699219"/><stop style="stop-color:#6ab7ed;stop-opacity:1;" offset="0.703125"/><stop style="stop-color:#6ab8ed;stop-opacity:1;" offset="0.707031"/><stop style="stop-color:#6ab8ed;stop-opacity:1;" offset="0.710938"/><stop style="stop-color:#6ab8ed;stop-opacity:1;" offset="0.71875"/><stop style="stop-color:#6ab9ed;stop-opacity:1;" offset="0.722656"/><stop style="stop-color:#69baed;stop-opacity:1;" offset="0.726562"/><stop style="stop-color:#69baed;stop-opacity:1;" offset="0.730469"/><stop style="stop-color:#69bbed;stop-opacity:1;" offset="0.734375"/><stop style="stop-color:#69bbec;stop-opacity:1;" offset="0.738281"/><stop style="stop-color:#68bcec;stop-opacity:1;" offset="0.742188"/><stop style="stop-color:#68bcec;stop-opacity:1;" offset="0.75"/><stop style="stop-color:#68bdec;stop-opacity:1;" offset="0.753906"/><stop style="stop-color:#68beec;stop-opacity:1;" offset="0.757812"/><stop style="stop-color:#68beec;stop-opacity:1;" offset="0.761719"/><stop style="stop-color:#67bfec;stop-opacity:1;" offset="0.765625"/><stop style="stop-color:#67c0ec;stop-opacity:1;" offset="0.769531"/><stop style="stop-color:#67c1ec;stop-opacity:1;" offset="0.773438"/><stop style="stop-color:#67c2eb;stop-opacity:1;" offset="0.777344"/><stop style="stop-color:#67c2eb;stop-opacity:1;" offset="0.78125"/><stop style="stop-color:#66c3eb;stop-opacity:1;" offset="0.785156"/><stop style="stop-color:#66c3eb;stop-opacity:1;" offset="0.789062"/><stop style="stop-color:#66c4eb;stop-opacity:1;" offset="0.796875"/><stop style="stop-color:#66c5eb;stop-opacity:1;" offset="0.804687"/><stop style="stop-color:#65c5eb;stop-opacity:1;" offset="0.8125"/><stop style="stop-color:#65c6eb;stop-opacity:1;" offset="0.816406"/><stop style="stop-color:#65c7ea;stop-opacity:1;" offset="0.820313"/><stop style="stop-color:#64c7ea;stop-opacity:1;" offset="0.828125"/><stop style="stop-color:#64c8ea;stop-opacity:1;" offset="0.835938"/><stop style="stop-color:#64caea;stop-opacity:1;" offset="0.839844"/><stop style="stop-color:#64cbea;stop-opacity:1;" offset="0.84375"/><stop style="stop-color:#63cbea;stop-opacity:1;" offset="0.847656"/><stop style="stop-color:#63ccea;stop-opacity:1;" offset="0.851562"/><stop style="stop-color:#63ccea;stop-opacity:1;" offset="0.855469"/><stop style="stop-color:#63cdea;stop-opacity:1;" offset="0.859375"/><stop style="stop-color:#62ceea;stop-opacity:1;" offset="0.863281"/><stop style="stop-color:#62cee9;stop-opacity:1;" offset="0.867188"/><stop style="stop-color:#62cfe9;stop-opacity:1;" offset="0.871094"/><stop style="stop-color:#62cfe9;stop-opacity:1;" offset="0.875"/><stop style="stop-color:#62d0e9;stop-opacity:1;" offset="0.878906"/><stop style="stop-color:#62d0e9;stop-opacity:1;" offset="0.882812"/><stop style="stop-color:#61d1e9;stop-opacity:1;" offset="0.886719"/><stop style="stop-color:#61d1e9;stop-opacity:1;" offset="0.890625"/><stop style="stop-color:#61d2e9;stop-opacity:1;" offset="0.894531"/><stop style="stop-color:#61d2e9;stop-opacity:1;" offset="0.898438"/><stop style="stop-color:#61d3e9;stop-opacity:1;" offset="0.902344"/><stop style="stop-color:#61d4e8;stop-opacity:1;" offset="0.90625"/><stop style="stop-color:#60d4e8;stop-opacity:1;" offset="0.910156"/><stop style="stop-color:#60d5e8;stop-opacity:1;" offset="0.914062"/><stop style="stop-color:#60d5e8;stop-opacity:1;" offset="0.921875"/><stop style="stop-color:#60d6e8;stop-opacity:1;" offset="0.929687"/><stop style="stop-color:#5fd7e8;stop-opacity:1;" offset="0.9375"/><stop style="stop-color:#5fd8e8;stop-opacity:1;" offset="0.941406"/><stop style="stop-color:#5fd9e7;stop-opacity:1;" offset="0.945313"/><stop style="stop-color:#5fdae7;stop-opacity:1;" offset="0.953125"/><stop style="stop-color:#5edbe7;stop-opacity:1;" offset="0.960938"/><stop style="stop-color:#5edce7;stop-opacity:1;" offset="0.964844"/><stop style="stop-color:#5edce7;stop-opacity:1;" offset="0.96875"/><stop style="stop-color:#5edde7;stop-opacity:1;" offset="0.972656"/><stop style="stop-color:#5ddee7;stop-opacity:1;" offset="0.976562"/><stop style="stop-color:#5ddfe7;stop-opacity:1;" offset="0.980469"/><stop style="stop-color:#5ddfe6;stop-opacity:1;" offset="0.984375"/><stop style="stop-color:#5de0e6;stop-opacity:1;" offset="0.988281"/><stop style="stop-color:#5ce0e6;stop-opacity:1;" offset="0.992188"/><stop style="stop-color:#5ce0e6;stop-opacity:1;" offset="0.996094"/><stop style="stop-color:#5ce1e6;stop-opacity:1;" offset="1"/></linearGradient><clipPath id="ecb0fa8f60"><path d="M 214.386719 65.363281 L 262.746094 65.363281 L 262.746094 121.667969 L 214.386719 121.667969 Z M 214.386719 65.363281 "/></clipPath><clipPath id="e3093ac295"><path d="M 201.148438 56.101562 L 275.949219 56.101562 L 275.949219 130.902344 L 201.148438 130.902344 Z M 201.148438 56.101562 "/></clipPath><clipPath id="fc327cf223"><path d="M 238.550781 56.101562 C 217.894531 56.101562 201.148438 72.84375 201.148438 93.5 C 201.148438 114.15625 217.894531 130.902344 238.550781 130.902344 C 259.207031 130.902344 275.949219 114.15625 275.949219 93.5 C 275.949219 72.84375 259.207031 56.101562 238.550781 56.101562 Z M 238.550781 56.101562 "/></clipPath><linearGradient x1="0.00000823669" gradientTransform="matrix(0.29219,0,0,0.29219,201.14935,56.100397)" y1="128" x2="256.00005" gradientUnits="userSpaceOnUse" y2="128" id="7d917068ed"><stop style="stop-color:#8c52ff;stop-opacity:1;" offset="0"/><stop style="stop-color:#8c52ff;stop-opacity:1;" offset="0.0078125"/><stop style="stop-color:#8b53ff;stop-opacity:1;" offset="0.0117188"/><stop style="stop-color:#8b54ff;stop-opacity:1;" offset="0.015625"/><stop style="stop-color:#8b54fe;stop-opacity:1;" offset="0.0195312"/><stop style="stop-color:#8b55fe;stop-opacity:1;" offset="0.0234375"/><stop style="stop-color:#8a56fe;stop-opacity:1;" offset="0.0273438"/><stop style="stop-color:#8a57fe;stop-opacity:1;" offset="0.03125"/><stop style="stop-color:#8a57fe;stop-opacity:1;" offset="0.0351562"/><stop style="stop-color:#8a58fe;stop-opacity:1;" offset="0.0390625"/><stop style="stop-color:#8a58fe;stop-opacity:1;" offset="0.046875"/><stop style="stop-color:#8959fe;stop-opacity:1;" offset="0.0546875"/><stop style="stop-color:#895afe;stop-opacity:1;" offset="0.0625"/><stop style="stop-color:#895cfd;stop-opacity:1;" offset="0.0664062"/><stop style="stop-color:#895cfd;stop-opacity:1;" offset="0.0703125"/><stop style="stop-color:#885dfd;stop-opacity:1;" offset="0.078125"/><stop style="stop-color:#885efd;stop-opacity:1;" offset="0.0859375"/><stop style="stop-color:#875ffd;stop-opacity:1;" offset="0.0898438"/><stop style="stop-color:#875ffd;stop-opacity:1;" offset="0.09375"/><stop style="stop-color:#8760fd;stop-opacity:1;" offset="0.0976562"/><stop style="stop-color:#8761fc;stop-opacity:1;" offset="0.101562"/><stop style="stop-color:#8761fc;stop-opacity:1;" offset="0.105469"/><stop style="stop-color:#8762fc;stop-opacity:1;" offset="0.109375"/><stop style="stop-color:#8662fc;stop-opacity:1;" offset="0.113281"/><stop style="stop-color:#8663fc;stop-opacity:1;" offset="0.117188"/><stop style="stop-color:#8663fc;stop-opacity:1;" offset="0.121094"/><stop style="stop-color:#8664fc;stop-opacity:1;" offset="0.125"/><stop style="stop-color:#8664fc;stop-opacity:1;" offset="0.128906"/><stop style="stop-color:#8665fc;stop-opacity:1;" offset="0.132812"/><stop style="stop-color:#8565fb;stop-opacity:1;" offset="0.136719"/><stop style="stop-color:#8566fb;stop-opacity:1;" offset="0.140625"/><stop style="stop-color:#8567fb;stop-opacity:1;" offset="0.144531"/><stop style="stop-color:#8567fb;stop-opacity:1;" offset="0.148438"/><stop style="stop-color:#8568fb;stop-opacity:1;" offset="0.15625"/><stop style="stop-color:#8569fb;stop-opacity:1;" offset="0.160156"/><stop style="stop-color:#846afb;stop-opacity:1;" offset="0.164062"/><stop style="stop-color:#846bfb;stop-opacity:1;" offset="0.171875"/><stop style="stop-color:#846cfb;stop-opacity:1;" offset="0.179688"/><stop style="stop-color:#836cfa;stop-opacity:1;" offset="0.183594"/><stop style="stop-color:#836dfa;stop-opacity:1;" offset="0.1875"/><stop style="stop-color:#836dfa;stop-opacity:1;" offset="0.191406"/><stop style="stop-color:#836efa;stop-opacity:1;" offset="0.195312"/><stop style="stop-color:#836efa;stop-opacity:1;" offset="0.203125"/><stop style="stop-color:#826ffa;stop-opacity:1;" offset="0.210938"/><stop style="stop-color:#8270fa;stop-opacity:1;" offset="0.214844"/><stop style="stop-color:#8271fa;stop-opacity:1;" offset="0.21875"/><stop style="stop-color:#8271f9;stop-opacity:1;" offset="0.222656"/><stop style="stop-color:#8172f9;stop-opacity:1;" offset="0.226562"/><stop style="stop-color:#8173f9;stop-opacity:1;" offset="0.230469"/><stop style="stop-color:#8174f9;stop-opacity:1;" offset="0.234375"/><stop style="stop-color:#8175f9;stop-opacity:1;" offset="0.238281"/><stop style="stop-color:#8075f9;stop-opacity:1;" offset="0.242188"/><stop style="stop-color:#8076f9;stop-opacity:1;" offset="0.246094"/><stop style="stop-color:#8076f9;stop-opacity:1;" offset="0.25"/><stop style="stop-color:#8077f9;stop-opacity:1;" offset="0.257812"/><stop style="stop-color:#7f78f8;stop-opacity:1;" offset="0.261719"/><stop style="stop-color:#7f78f8;stop-opacity:1;" offset="0.265625"/><stop style="stop-color:#7f79f8;stop-opacity:1;" offset="0.269531"/><stop style="stop-color:#7f79f8;stop-opacity:1;" offset="0.273437"/><stop style="stop-color:#7f7af8;stop-opacity:1;" offset="0.28125"/><stop style="stop-color:#7e7af8;stop-opacity:1;" offset="0.289063"/><stop style="stop-color:#7e7cf8;stop-opacity:1;" offset="0.292969"/><stop style="stop-color:#7e7df8;stop-opacity:1;" offset="0.296875"/><stop style="stop-color:#7d7df8;stop-opacity:1;" offset="0.300781"/><stop style="stop-color:#7d7ef7;stop-opacity:1;" offset="0.304688"/><stop style="stop-color:#7d7ef7;stop-opacity:1;" offset="0.3125"/><stop style="stop-color:#7d7ff7;stop-opacity:1;" offset="0.316406"/><stop style="stop-color:#7d80f7;stop-opacity:1;" offset="0.320312"/><stop style="stop-color:#7c81f7;stop-opacity:1;" offset="0.324219"/><stop style="stop-color:#7c81f7;stop-opacity:1;" offset="0.328125"/><stop style="stop-color:#7c82f7;stop-opacity:1;" offset="0.335937"/><stop style="stop-color:#7c83f7;stop-opacity:1;" offset="0.339844"/><stop style="stop-color:#7c83f6;stop-opacity:1;" offset="0.34375"/><stop style="stop-color:#7b84f6;stop-opacity:1;" offset="0.347656"/><stop style="stop-color:#7b84f6;stop-opacity:1;" offset="0.351563"/><stop style="stop-color:#7b85f6;stop-opacity:1;" offset="0.355469"/><stop style="stop-color:#7b85f6;stop-opacity:1;" offset="0.359375"/><stop style="stop-color:#7a86f6;stop-opacity:1;" offset="0.363281"/><stop style="stop-color:#7a87f6;stop-opacity:1;" offset="0.367188"/><stop style="stop-color:#7a87f6;stop-opacity:1;" offset="0.371094"/><stop style="stop-color:#7a88f6;stop-opacity:1;" offset="0.375"/><stop style="stop-color:#7a88f6;stop-opacity:1;" offset="0.382812"/><stop style="stop-color:#7a89f5;stop-opacity:1;" offset="0.390625"/><stop style="stop-color:#798af5;stop-opacity:1;" offset="0.394531"/><stop style="stop-color:#798bf5;stop-opacity:1;" offset="0.398437"/><stop style="stop-color:#798cf5;stop-opacity:1;" offset="0.40625"/><stop style="stop-color:#798df5;stop-opacity:1;" offset="0.414063"/><stop style="stop-color:#788ef5;stop-opacity:1;" offset="0.417969"/><stop style="stop-color:#788ef4;stop-opacity:1;" offset="0.421875"/><stop style="stop-color:#788ff4;stop-opacity:1;" offset="0.425781"/><stop style="stop-color:#778ff4;stop-opacity:1;" offset="0.429688"/><stop style="stop-color:#7790f4;stop-opacity:1;" offset="0.433594"/><stop style="stop-color:#7791f4;stop-opacity:1;" offset="0.4375"/><stop style="stop-color:#7792f4;stop-opacity:1;" offset="0.441406"/><stop style="stop-color:#7792f4;stop-opacity:1;" offset="0.445312"/><stop style="stop-color:#7792f4;stop-opacity:1;" offset="0.453125"/><stop style="stop-color:#7693f4;stop-opacity:1;" offset="0.457031"/><stop style="stop-color:#7694f3;stop-opacity:1;" offset="0.460937"/><stop style="stop-color:#7694f3;stop-opacity:1;" offset="0.46875"/><stop style="stop-color:#7695f3;stop-opacity:1;" offset="0.472656"/><stop style="stop-color:#7596f3;stop-opacity:1;" offset="0.476563"/><stop style="stop-color:#7596f3;stop-opacity:1;" offset="0.480469"/><stop style="stop-color:#7597f3;stop-opacity:1;" offset="0.484375"/><stop style="stop-color:#7598f3;stop-opacity:1;" offset="0.488281"/><stop style="stop-color:#7498f3;stop-opacity:1;" offset="0.492188"/><stop style="stop-color:#7499f3;stop-opacity:1;" offset="0.496094"/><stop style="stop-color:#749af3;stop-opacity:1;" offset="0.5"/><stop style="stop-color:#749bf3;stop-opacity:1;" offset="0.503906"/><stop style="stop-color:#749bf2;stop-opacity:1;" offset="0.507812"/><stop style="stop-color:#749bf2;stop-opacity:1;" offset="0.511719"/><stop style="stop-color:#739cf2;stop-opacity:1;" offset="0.515625"/><stop style="stop-color:#739df2;stop-opacity:1;" offset="0.519531"/><stop style="stop-color:#739df2;stop-opacity:1;" offset="0.523438"/><stop style="stop-color:#739ef2;stop-opacity:1;" offset="0.527344"/><stop style="stop-color:#739ef2;stop-opacity:1;" offset="0.53125"/><stop style="stop-color:#729ff2;stop-opacity:1;" offset="0.539062"/><stop style="stop-color:#72a0f1;stop-opacity:1;" offset="0.542969"/><stop style="stop-color:#72a0f1;stop-opacity:1;" offset="0.546875"/><stop style="stop-color:#72a0f1;stop-opacity:1;" offset="0.550781"/><stop style="stop-color:#71a1f1;stop-opacity:1;" offset="0.554687"/><stop style="stop-color:#71a1f1;stop-opacity:1;" offset="0.558594"/><stop style="stop-color:#71a2f1;stop-opacity:1;" offset="0.5625"/><stop style="stop-color:#71a3f1;stop-opacity:1;" offset="0.566406"/><stop style="stop-color:#71a4f1;stop-opacity:1;" offset="0.570313"/><stop style="stop-color:#70a4f1;stop-opacity:1;" offset="0.574219"/><stop style="stop-color:#70a5f1;stop-opacity:1;" offset="0.578125"/><stop style="stop-color:#70a5f0;stop-opacity:1;" offset="0.582031"/><stop style="stop-color:#70a6f0;stop-opacity:1;" offset="0.585938"/><stop style="stop-color:#70a6f0;stop-opacity:1;" offset="0.59375"/><stop style="stop-color:#6fa7f0;stop-opacity:1;" offset="0.597656"/><stop style="stop-color:#6fa8f0;stop-opacity:1;" offset="0.601562"/><stop style="stop-color:#6fa9f0;stop-opacity:1;" offset="0.605469"/><stop style="stop-color:#6fa9f0;stop-opacity:1;" offset="0.609375"/><stop style="stop-color:#6eaaf0;stop-opacity:1;" offset="0.613281"/><stop style="stop-color:#6eaaf0;stop-opacity:1;" offset="0.617188"/><stop style="stop-color:#6eabef;stop-opacity:1;" offset="0.625"/><stop style="stop-color:#6eacef;stop-opacity:1;" offset="0.628906"/><stop style="stop-color:#6eacef;stop-opacity:1;" offset="0.632812"/><stop style="stop-color:#6dadef;stop-opacity:1;" offset="0.636719"/><stop style="stop-color:#6daeef;stop-opacity:1;" offset="0.640625"/><stop style="stop-color:#6daeef;stop-opacity:1;" offset="0.644531"/><stop style="stop-color:#6dafef;stop-opacity:1;" offset="0.648438"/><stop style="stop-color:#6dafef;stop-opacity:1;" offset="0.652344"/><stop style="stop-color:#6db0ef;stop-opacity:1;" offset="0.65625"/><stop style="stop-color:#6cb0ee;stop-opacity:1;" offset="0.660156"/><stop style="stop-color:#6cb1ee;stop-opacity:1;" offset="0.664062"/><stop style="stop-color:#6cb1ee;stop-opacity:1;" offset="0.671875"/><stop style="stop-color:#6cb2ee;stop-opacity:1;" offset="0.675781"/><stop style="stop-color:#6bb3ee;stop-opacity:1;" offset="0.679687"/><stop style="stop-color:#6bb4ee;stop-opacity:1;" offset="0.683594"/><stop style="stop-color:#6bb4ee;stop-opacity:1;" offset="0.6875"/><stop style="stop-color:#6bb5ee;stop-opacity:1;" offset="0.691406"/><stop style="stop-color:#6bb5ee;stop-opacity:1;" offset="0.695313"/><stop style="stop-color:#6bb6ed;stop-opacity:1;" offset="0.699219"/><stop style="stop-color:#6ab7ed;stop-opacity:1;" offset="0.703125"/><stop style="stop-color:#6ab8ed;stop-opacity:1;" offset="0.707031"/><stop style="stop-color:#6ab8ed;stop-opacity:1;" offset="0.710938"/><stop style="stop-color:#6ab8ed;stop-opacity:1;" offset="0.71875"/><stop style="stop-color:#6ab9ed;stop-opacity:1;" offset="0.722656"/><stop style="stop-color:#69baed;stop-opacity:1;" offset="0.726562"/><stop style="stop-color:#69baed;stop-opacity:1;" offset="0.730469"/><stop style="stop-color:#69bbed;stop-opacity:1;" offset="0.734375"/><stop style="stop-color:#69bbec;stop-opacity:1;" offset="0.738281"/><stop style="stop-color:#68bcec;stop-opacity:1;" offset="0.742188"/><stop style="stop-color:#68bcec;stop-opacity:1;" offset="0.75"/><stop style="stop-color:#68bdec;stop-opacity:1;" offset="0.753906"/><stop style="stop-color:#68beec;stop-opacity:1;" offset="0.757812"/><stop style="stop-color:#68beec;stop-opacity:1;" offset="0.761719"/><stop style="stop-color:#67bfec;stop-opacity:1;" offset="0.765625"/><stop style="stop-color:#67c0ec;stop-opacity:1;" offset="0.769531"/><stop style="stop-color:#67c1ec;stop-opacity:1;" offset="0.773438"/><stop style="stop-color:#67c2eb;stop-opacity:1;" offset="0.777344"/><stop style="stop-color:#67c2eb;stop-opacity:1;" offset="0.78125"/><stop style="stop-color:#66c3eb;stop-opacity:1;" offset="0.785156"/><stop style="stop-color:#66c3eb;stop-opacity:1;" offset="0.789062"/><stop style="stop-color:#66c4eb;stop-opacity:1;" offset="0.796875"/><stop style="stop-color:#66c5eb;stop-opacity:1;" offset="0.804687"/><stop style="stop-color:#65c5eb;stop-opacity:1;" offset="0.8125"/><stop style="stop-color:#65c6eb;stop-opacity:1;" offset="0.816406"/><stop style="stop-color:#65c7ea;stop-opacity:1;" offset="0.820313"/><stop style="stop-color:#64c7ea;stop-opacity:1;" offset="0.828125"/><stop style="stop-color:#64c8ea;stop-opacity:1;" offset="0.835938"/><stop style="stop-color:#64caea;stop-opacity:1;" offset="0.839844"/><stop style="stop-color:#64cbea;stop-opacity:1;" offset="0.84375"/><stop style="stop-color:#63cbea;stop-opacity:1;" offset="0.847656"/><stop style="stop-color:#63ccea;stop-opacity:1;" offset="0.851562"/><stop style="stop-color:#63ccea;stop-opacity:1;" offset="0.855469"/><stop style="stop-color:#63cdea;stop-opacity:1;" offset="0.859375"/><stop style="stop-color:#62ceea;stop-opacity:1;" offset="0.863281"/><stop style="stop-color:#62cee9;stop-opacity:1;" offset="0.867188"/><stop style="stop-color:#62cfe9;stop-opacity:1;" offset="0.871094"/><stop style="stop-color:#62cfe9;stop-opacity:1;" offset="0.875"/><stop style="stop-color:#62d0e9;stop-opacity:1;" offset="0.878906"/><stop style="stop-color:#62d0e9;stop-opacity:1;" offset="0.882812"/><stop style="stop-color:#61d1e9;stop-opacity:1;" offset="0.886719"/><stop style="stop-color:#61d1e9;stop-opacity:1;" offset="0.890625"/><stop style="stop-color:#61d2e9;stop-opacity:1;" offset="0.894531"/><stop style="stop-color:#61d2e9;stop-opacity:1;" offset="0.898438"/><stop style="stop-color:#61d3e9;stop-opacity:1;" offset="0.902344"/><stop style="stop-color:#61d4e8;stop-opacity:1;" offset="0.90625"/><stop style="stop-color:#60d4e8;stop-opacity:1;" offset="0.910156"/><stop style="stop-color:#60d5e8;stop-opacity:1;" offset="0.914062"/><stop style="stop-color:#60d5e8;stop-opacity:1;" offset="0.921875"/><stop style="stop-color:#60d6e8;stop-opacity:1;" offset="0.929687"/><stop style="stop-color:#5fd7e8;stop-opacity:1;" offset="0.9375"/><stop style="stop-color:#5fd8e8;stop-opacity:1;" offset="0.941406"/><stop style="stop-color:#5fd9e7;stop-opacity:1;" offset="0.945313"/><stop style="stop-color:#5fdae7;stop-opacity:1;" offset="0.953125"/><stop style="stop-color:#5edbe7;stop-opacity:1;" offset="0.960938"/><stop style="stop-color:#5edce7;stop-opacity:1;" offset="0.964844"/><stop style="stop-color:#5edce7;stop-opacity:1;" offset="0.96875"/><stop style="stop-color:#5edde7;stop-opacity:1;" offset="0.972656"/><stop style="stop-color:#5ddee7;stop-opacity:1;" offset="0.976562"/><stop style="stop-color:#5ddfe7;stop-opacity:1;" offset="0.980469"/><stop style="stop-color:#5ddfe6;stop-opacity:1;" offset="0.984375"/><stop style="stop-color:#5de0e6;stop-opacity:1;" offset="0.988281"/><stop style="stop-color:#5ce0e6;stop-opacity:1;" offset="0.992188"/><stop style="stop-color:#5ce0e6;stop-opacity:1;" offset="0.996094"/><stop style="stop-color:#5ce1e6;stop-opacity:1;" offset="1"/></linearGradient><clipPath id="51bb517d17"><path d="M 214.386719 65.363281 L 262.746094 65.363281 L 262.746094 121.667969 L 214.386719 121.667969 Z M 214.386719 65.363281 "/></clipPath></defs><g id="e3756cad87"><g clip-rule="nonzero" clip-path="url(#3d6062ec6f)"><path style=" stroke:none;fill-rule:nonzero;fill:#ef0a1b;fill-opacity:1;" d="M 52.480469 74.464844 C 52.300781 74.464844 52.136719 74.421875 51.980469 74.332031 L 51.882812 74.273438 L 37.9375 66.167969 C 37.785156 66.078125 37.664062 65.957031 37.574219 65.804688 C 37.488281 65.652344 37.441406 65.488281 37.441406 65.3125 C 37.441406 65.136719 37.484375 64.972656 37.570312 64.820312 C 37.65625 64.667969 37.773438 64.542969 37.925781 64.453125 L 51.542969 56.289062 C 51.882812 56.085938 52.222656 56.085938 52.5625 56.289062 L 66.441406 64.632812 C 66.59375 64.722656 66.710938 64.84375 66.796875 64.996094 C 66.882812 65.148438 66.925781 65.3125 66.925781 65.488281 C 66.921875 65.660156 66.878906 65.824219 66.792969 65.976562 C 66.707031 66.128906 66.589844 66.25 66.4375 66.339844 L 52.984375 74.324219 C 52.828125 74.417969 52.660156 74.464844 52.480469 74.464844 Z M 40.386719 65.292969 L 52.472656 72.320312 L 63.996094 65.480469 L 52.050781 58.300781 Z M 40.386719 65.292969 "/></g><g clip-rule="nonzero" clip-path="url(#3365f41fb7)"><path style=" stroke:none;fill-rule:nonzero;fill:#ef0a1b;fill-opacity:1;" d="M 66.328125 130.902344 C 66.160156 130.902344 65.996094 130.859375 65.847656 130.777344 L 37.953125 115.25 C 37.613281 115.058594 37.441406 114.769531 37.441406 114.378906 L 37.441406 65.308594 C 37.441406 64.921875 37.605469 64.636719 37.9375 64.445312 C 38.269531 64.253906 38.601562 64.253906 38.929688 64.445312 L 52.878906 72.554688 C 53.207031 72.746094 53.371094 73.03125 53.371094 73.414062 L 53.371094 105.566406 L 66.828125 113.425781 C 67.15625 113.617188 67.320312 113.902344 67.320312 114.285156 L 67.320312 129.90625 C 67.320312 130.039062 67.296875 130.164062 67.246094 130.289062 C 67.195312 130.410156 67.125 130.515625 67.03125 130.609375 C 66.9375 130.703125 66.832031 130.773438 66.707031 130.824219 C 66.585938 130.875 66.460938 130.902344 66.328125 130.902344 Z M 39.425781 113.796875 L 65.339844 128.21875 L 65.339844 114.855469 L 51.882812 106.996094 C 51.554688 106.804688 51.390625 106.519531 51.390625 106.136719 L 51.390625 73.988281 L 39.425781 67.03125 Z M 39.425781 113.796875 "/></g><path style=" stroke:none;fill-rule:nonzero;fill:#ef0a1b;fill-opacity:1;" d="M 52.382812 107.132812 C 52.25 107.132812 52.125 107.105469 52 107.054688 C 51.878906 107.007812 51.773438 106.933594 51.679688 106.839844 C 51.585938 106.746094 51.515625 106.640625 51.464844 106.519531 C 51.414062 106.398438 51.390625 106.269531 51.390625 106.136719 L 51.390625 73.414062 C 51.390625 73.15625 51.476562 72.933594 51.652344 72.742188 C 51.824219 72.550781 52.039062 72.445312 52.296875 72.421875 L 65.429688 64.628906 C 65.503906 64.585938 65.582031 64.550781 65.664062 64.527344 C 65.75 64.503906 65.835938 64.492188 65.921875 64.492188 C 66.007812 64.488281 66.09375 64.5 66.179688 64.519531 C 66.261719 64.542969 66.34375 64.574219 66.417969 64.617188 C 66.496094 64.660156 66.5625 64.710938 66.625 64.773438 C 66.6875 64.835938 66.742188 64.902344 66.785156 64.976562 C 66.828125 65.050781 66.863281 65.132812 66.886719 65.214844 C 66.910156 65.300781 66.921875 65.386719 66.925781 65.472656 L 67.320312 97.789062 C 67.324219 98.171875 67.164062 98.457031 66.835938 98.652344 L 52.890625 106.992188 C 52.734375 107.085938 52.5625 107.132812 52.382812 107.132812 Z M 53.371094 74.09375 L 53.371094 104.386719 L 65.332031 97.238281 L 64.960938 67.214844 Z M 53.371094 74.09375 "/><g clip-rule="nonzero" clip-path="url(#962f875ee2)"><path style=" stroke:none;fill-rule:nonzero;fill:#ef0a1b;fill-opacity:1;" d="M 66.328125 130.902344 C 66.199219 130.902344 66.070312 130.875 65.949219 130.824219 C 65.828125 130.773438 65.722656 130.703125 65.628906 130.609375 C 65.535156 130.515625 65.464844 130.410156 65.414062 130.289062 C 65.363281 130.164062 65.339844 130.039062 65.339844 129.90625 L 65.339844 114.285156 C 65.339844 113.902344 65.503906 113.613281 65.835938 113.421875 L 94.230469 97.128906 C 94.304688 97.085938 94.382812 97.054688 94.46875 97.03125 C 94.550781 97.007812 94.636719 96.996094 94.722656 96.996094 C 94.8125 97 94.894531 97.007812 94.980469 97.03125 C 95.0625 97.054688 95.144531 97.089844 95.21875 97.132812 C 95.292969 97.175781 95.363281 97.226562 95.421875 97.289062 C 95.484375 97.351562 95.535156 97.421875 95.582031 97.496094 C 95.625 97.570312 95.65625 97.652344 95.679688 97.734375 C 95.703125 97.820312 95.710938 97.90625 95.710938 97.992188 L 95.710938 114.285156 C 95.710938 114.675781 95.542969 114.96875 95.199219 115.15625 L 66.804688 130.777344 C 66.65625 130.859375 66.5 130.902344 66.328125 130.902344 Z M 67.320312 114.859375 L 67.320312 128.226562 L 93.730469 113.695312 L 93.730469 99.707031 Z M 67.320312 114.859375 "/></g><path style=" stroke:none;fill-rule:nonzero;fill:#ef0a1b;fill-opacity:1;" d="M 66.328125 115.277344 C 66.152344 115.277344 65.984375 115.234375 65.832031 115.144531 L 51.882812 106.996094 C 51.730469 106.910156 51.609375 106.789062 51.523438 106.636719 C 51.433594 106.484375 51.390625 106.320312 51.390625 106.144531 C 51.390625 105.96875 51.433594 105.804688 51.519531 105.648438 C 51.605469 105.496094 51.722656 105.375 51.875 105.285156 L 65.820312 96.945312 C 65.832031 96.941406 65.84375 96.933594 65.855469 96.929688 L 80 89.164062 C 80.320312 88.988281 80.640625 88.992188 80.960938 89.167969 L 95.203125 97.125 C 95.539062 97.3125 95.710938 97.597656 95.710938 97.984375 C 95.714844 98.371094 95.546875 98.664062 95.214844 98.855469 L 66.820312 115.148438 C 66.667969 115.234375 66.503906 115.277344 66.328125 115.277344 Z M 54.332031 106.128906 L 66.332031 113.136719 L 92.703125 98.003906 L 80.472656 91.171875 L 66.820312 98.664062 Z M 54.332031 106.128906 "/><path style=" stroke:none;fill-rule:nonzero;fill:#ef0a1b;fill-opacity:1;" d="M 94.722656 98.984375 C 94.550781 98.984375 94.386719 98.945312 94.238281 98.859375 L 79.996094 90.90625 C 79.65625 90.714844 79.484375 90.425781 79.484375 90.035156 L 79.535156 73.46875 C 79.535156 73.382812 79.546875 73.296875 79.566406 73.210938 C 79.589844 73.128906 79.625 73.046875 79.667969 72.972656 C 79.710938 72.898438 79.761719 72.828125 79.824219 72.769531 C 79.886719 72.707031 79.953125 72.652344 80.027344 72.609375 C 80.105469 72.566406 80.183594 72.535156 80.265625 72.511719 C 80.351562 72.488281 80.4375 72.476562 80.523438 72.476562 C 80.609375 72.476562 80.695312 72.488281 80.777344 72.511719 C 80.863281 72.53125 80.941406 72.566406 81.015625 72.609375 L 95.210938 80.742188 C 95.546875 80.929688 95.710938 81.21875 95.710938 81.601562 L 95.710938 97.992188 C 95.710938 98.125 95.6875 98.25 95.636719 98.371094 C 95.585938 98.492188 95.515625 98.601562 95.421875 98.695312 C 95.328125 98.789062 95.222656 98.859375 95.101562 98.910156 C 94.980469 98.960938 94.851562 98.984375 94.722656 98.984375 Z M 81.46875 89.453125 L 93.730469 96.300781 L 93.730469 82.179688 L 81.511719 75.179688 Z M 81.46875 89.453125 "/><g clip-rule="nonzero" clip-path="url(#791498eef0)"><path style=" stroke:none;fill-rule:nonzero;fill:#ef0a1b;fill-opacity:1;" d="M 94.722656 98.984375 C 94.589844 98.984375 94.464844 98.960938 94.339844 98.910156 C 94.21875 98.859375 94.113281 98.789062 94.019531 98.695312 C 93.925781 98.601562 93.855469 98.492188 93.804688 98.371094 C 93.753906 98.25 93.730469 98.125 93.730469 97.992188 L 93.730469 81.601562 C 93.730469 81.21875 93.898438 80.929688 94.230469 80.738281 L 108.472656 72.605469 C 108.550781 72.5625 108.628906 72.53125 108.714844 72.507812 C 108.796875 72.488281 108.882812 72.476562 108.96875 72.476562 C 109.054688 72.476562 109.140625 72.488281 109.226562 72.511719 C 109.308594 72.535156 109.386719 72.566406 109.464844 72.613281 C 109.539062 72.65625 109.605469 72.707031 109.667969 72.769531 C 109.730469 72.832031 109.78125 72.898438 109.824219 72.976562 C 109.867188 73.050781 109.898438 73.128906 109.921875 73.214844 C 109.945312 73.296875 109.957031 73.382812 109.957031 73.472656 L 109.957031 90.035156 C 109.957031 90.425781 109.785156 90.714844 109.445312 90.90625 L 95.203125 98.859375 C 95.054688 98.945312 94.894531 98.984375 94.722656 98.984375 Z M 95.710938 82.179688 L 95.710938 96.300781 L 107.972656 89.453125 L 107.972656 75.179688 Z M 95.710938 82.179688 "/></g><g clip-rule="nonzero" clip-path="url(#8b05f9d677)"><path style=" stroke:none;fill-rule:nonzero;fill:#ef0a1b;fill-opacity:1;" d="M 94.722656 82.597656 C 94.546875 82.597656 94.382812 82.554688 94.230469 82.464844 L 80.035156 74.332031 C 79.699219 74.140625 79.53125 73.851562 79.535156 73.46875 C 79.535156 73.082031 79.703125 72.792969 80.039062 72.605469 L 94.234375 64.617188 C 94.558594 64.4375 94.882812 64.4375 95.203125 64.617188 L 109.449219 72.601562 C 109.785156 72.792969 109.953125 73.078125 109.957031 73.46875 C 109.957031 73.855469 109.789062 74.144531 109.457031 74.335938 L 95.210938 82.46875 C 95.058594 82.554688 94.894531 82.597656 94.722656 82.597656 Z M 82.539062 73.480469 L 94.722656 80.460938 L 106.949219 73.480469 L 94.722656 66.625 Z M 82.539062 73.480469 "/></g><g clip-rule="nonzero" clip-path="url(#a3b664d999)"><path style=" stroke:none;fill-rule:nonzero;fill:#a6a6a6;fill-opacity:1;" d="M 137.582031 89.484375 L 137.824219 89.816406 C 137.710938 89.664062 137.648438 89.582031 137.582031 89.484375 Z M 158.136719 88.339844 C 158 88.519531 157.84375 88.703125 157.699219 88.886719 C 157.835938 88.703125 157.765625 88.585938 158.136719 88.339844 Z M 143.910156 95.839844 C 143.722656 95.691406 143.609375 95.800781 143.390625 95.453125 C 143.5625 95.578125 143.734375 95.71875 143.910156 95.839844 Z M 164.972656 81.421875 C 164.851562 81.523438 164.730469 81.628906 164.609375 81.730469 C 164.777344 81.589844 164.867188 81.511719 164.972656 81.421875 Z M 164.15625 83.953125 C 164.238281 83.890625 164.285156 83.824219 164.316406 83.75 C 164.328125 83.8125 164.230469 83.886719 164.152344 83.957031 C 164.152344 83.957031 164.152344 83.953125 164.15625 83.953125 Z M 164.621094 83.234375 C 164.558594 83.292969 164.5 83.355469 164.445312 83.421875 C 164.484375 83.359375 164.539062 83.296875 164.621094 83.234375 Z M 166.289062 81.894531 C 166.136719 82.089844 165.957031 82.25 165.769531 82.394531 C 165.949219 82.226562 166.121094 82.058594 166.289062 81.894531 Z M 140.019531 90.242188 C 140.046875 90.28125 140.074219 90.3125 140.101562 90.347656 C 140.0625 90.320312 140.023438 90.296875 139.984375 90.273438 C 139.996094 90.265625 140.007812 90.257812 140.019531 90.242188 Z M 139.855469 90.1875 C 139.851562 90.1875 139.851562 90.1875 139.847656 90.183594 C 139.804688 90.109375 139.746094 90.070312 139.679688 90.042969 C 139.742188 90.03125 139.800781 90.117188 139.855469 90.1875 Z M 139.394531 89.9375 C 139.335938 89.90625 139.28125 89.855469 139.234375 89.773438 C 139.28125 89.832031 139.335938 89.886719 139.394531 89.9375 Z M 138.203125 88.28125 C 138.363281 88.417969 138.488281 88.582031 138.597656 88.753906 C 138.46875 88.589844 138.335938 88.433594 138.203125 88.28125 Z M 164.085938 84.140625 C 164.042969 84.175781 164.003906 84.210938 163.964844 84.25 C 163.996094 84.203125 164.027344 84.15625 164.054688 84.109375 C 164.0625 84.121094 164.070312 84.132812 164.085938 84.140625 Z M 171.179688 79.664062 C 171.21875 79.550781 171.269531 79.417969 171.308594 79.304688 C 171.160156 79.195312 171.160156 78.890625 170.800781 79.039062 C 170.742188 78.851562 170.703125 78.660156 170.65625 78.464844 C 170.964844 78.027344 170.570312 77.851562 170.117188 77.910156 C 170.332031 77.410156 169.894531 77.570312 169.617188 77.519531 C 169.554688 77.4375 169.5 77.367188 169.441406 77.289062 C 169.375 77.34375 169.308594 77.398438 169.246094 77.453125 C 169.191406 77.382812 169.128906 77.304688 169.066406 77.226562 C 168.925781 77.238281 168.675781 77.28125 168.488281 77.285156 C 168.46875 77.261719 168.449219 77.238281 168.425781 77.207031 C 168.289062 77.085938 167.847656 77.683594 167.601562 77.476562 C 167.617188 77.582031 167.640625 77.691406 167.65625 77.796875 C 167.222656 77.878906 167.046875 77.765625 166.777344 77.863281 C 166.710938 78.023438 166.65625 78.148438 166.691406 78.304688 C 166.585938 78.394531 166.730469 78.441406 166.839844 78.496094 C 166.789062 78.65625 166.742188 78.789062 166.675781 78.949219 C 166.445312 78.960938 166.398438 78.898438 166.195312 79.109375 C 166.335938 79.320312 165.808594 79.640625 165.71875 79.96875 C 165.472656 80.175781 164.917969 80.410156 165.148438 80.703125 C 164.703125 80.9375 164.292969 81.355469 164.144531 81.691406 C 163.964844 81.820312 163.804688 81.835938 163.65625 81.976562 C 163.480469 82.167969 163.316406 82.347656 163.160156 82.535156 C 162.660156 82.945312 162.597656 83.28125 162.214844 83.59375 C 162.050781 83.769531 161.875 83.960938 161.710938 84.140625 C 161.566406 84.316406 161.417969 84.484375 161.269531 84.652344 C 161.054688 84.765625 160.875 84.921875 160.707031 85.261719 C 160.550781 85.394531 160.382812 85.539062 160.214844 85.683594 C 160.046875 85.828125 159.890625 85.960938 159.722656 86.105469 C 159.496094 86.230469 159.316406 86.386719 159.15625 86.707031 C 159.0625 86.785156 158.988281 86.851562 158.894531 86.929688 C 158.722656 86.984375 158.359375 87.292969 158.253906 87.542969 C 157.972656 87.824219 157.707031 88.089844 157.433594 88.375 C 157.179688 88.382812 156.753906 88.808594 156.5625 89.117188 C 156.425781 89.246094 156.296875 89.386719 156.160156 89.515625 C 155.363281 89.960938 154.988281 90.699219 154.289062 91.246094 C 154.09375 91.574219 153.507812 91.847656 153.441406 92.152344 C 152.882812 92.683594 152.097656 93.199219 151.753906 93.726562 C 151.605469 93.84375 151.453125 94.035156 151.296875 94.054688 C 150.742188 94.71875 150.117188 95.265625 149.46875 95.8125 C 149.402344 95.714844 149.332031 95.613281 149.261719 95.515625 C 149.207031 95.488281 149.171875 95.464844 149.128906 95.449219 C 148.769531 95.019531 148.417969 94.585938 148.074219 94.148438 C 147.988281 94.058594 147.894531 93.953125 147.804688 93.847656 C 147.667969 93.722656 147.574219 93.527344 147.414062 93.480469 C 147.289062 93.386719 147.15625 93.277344 147.023438 93.1875 C 146.980469 93.0625 146.886719 92.960938 146.804688 92.863281 C 146.675781 92.789062 146.546875 92.714844 146.433594 92.644531 C 146.277344 92.441406 146.132812 92.253906 145.980469 92.054688 C 145.777344 91.789062 145.582031 91.515625 145.375 91.25 C 145.316406 91.261719 145.277344 91.273438 145.21875 91.28125 C 145.195312 91.035156 144.945312 90.734375 144.707031 90.742188 C 144.628906 90.660156 144.542969 90.585938 144.457031 90.511719 C 144.261719 90.269531 144.066406 90.03125 143.867188 89.78125 C 143.613281 89.460938 143.371094 89.152344 143.121094 88.832031 C 142.953125 88.554688 142.730469 88.40625 142.390625 88.113281 C 142.308594 88.035156 142.226562 87.957031 142.144531 87.875 C 142.0625 87.765625 141.984375 87.664062 141.898438 87.550781 C 141.742188 87.390625 141.582031 87.226562 141.414062 87.070312 C 141.296875 86.910156 141.171875 86.742188 140.980469 86.636719 C 140.808594 86.449219 140.640625 86.273438 140.460938 86.089844 C 140.3125 85.886719 140.175781 85.691406 140.027344 85.484375 C 139.914062 85.34375 139.792969 85.085938 139.679688 85.078125 C 139.566406 84.96875 139.441406 84.847656 139.328125 84.738281 C 139.253906 84.683594 139.175781 84.621094 139.09375 84.574219 C 138.9375 84.574219 138.78125 84.558594 138.625 84.558594 C 138.566406 84.5625 138.507812 84.566406 138.457031 84.582031 C 138.296875 84.652344 138.136719 84.738281 137.976562 84.804688 C 137.9375 84.746094 137.90625 84.699219 137.867188 84.640625 C 137.773438 84.398438 137.699219 84.164062 137.609375 83.917969 C 137.535156 83.917969 137.453125 83.917969 137.371094 83.902344 C 137.359375 83.742188 137.28125 83.511719 137.113281 83.4375 C 136.976562 83.503906 136.863281 83.585938 136.933594 83.859375 C 136.835938 83.816406 136.722656 83.773438 136.625 83.730469 C 136.492188 83.863281 136.210938 83.847656 136.277344 84.175781 C 136.09375 84.21875 135.90625 84.25 135.714844 84.28125 C 135.367188 83.980469 135.121094 84.324219 135.09375 84.738281 C 134.660156 84.511719 134.730469 84.921875 134.632812 85.171875 C 134.546875 85.222656 134.46875 85.269531 134.382812 85.324219 L 134.503906 85.511719 C 134.429688 85.558594 134.34375 85.609375 134.257812 85.660156 C 134.246094 85.792969 134.242188 86.019531 134.214844 86.195312 C 134.1875 86.210938 134.164062 86.226562 134.128906 86.25 C 133.992188 86.371094 134.484375 86.800781 134.25 87.019531 C 134.347656 87.007812 134.460938 86.992188 134.5625 86.980469 C 134.566406 87.382812 134.433594 87.539062 134.484375 87.789062 C 134.628906 87.855469 134.738281 87.910156 134.890625 87.882812 C 134.957031 87.980469 135.023438 87.847656 135.089844 87.75 C 135.234375 87.800781 135.351562 87.847656 135.496094 87.910156 C 135.472656 88.121094 135.40625 88.164062 135.574219 88.355469 C 135.792969 88.230469 136.019531 88.714844 136.3125 88.804688 C 136.476562 89.03125 136.625 89.535156 136.929688 89.328125 C 137.089844 89.734375 137.429688 90.109375 137.726562 90.238281 C 137.828125 90.402344 137.824219 90.550781 137.9375 90.683594 C 138.09375 90.84375 138.242188 90.992188 138.402344 91.128906 C 138.734375 91.578125 139.035156 91.632812 139.289062 91.972656 C 139.441406 92.117188 139.601562 92.269531 139.753906 92.414062 C 139.902344 92.539062 140.046875 92.671875 140.1875 92.804688 C 140.277344 92.992188 140.40625 93.152344 140.710938 93.289062 C 140.820312 93.425781 140.941406 93.574219 141.058594 93.722656 C 141.179688 93.867188 141.292969 94.003906 141.414062 94.152344 C 141.515625 94.351562 141.644531 94.507812 141.933594 94.636719 C 142 94.714844 142.054688 94.78125 142.121094 94.863281 C 142.15625 95.019531 142.425781 95.328125 142.652344 95.410156 C 142.894531 95.648438 143.128906 95.875 143.378906 96.101562 C 143.371094 96.335938 143.75 96.6875 144.027344 96.839844 C 144.144531 96.949219 144.261719 97.0625 144.378906 97.175781 C 144.761719 97.867188 145.441406 98.136719 145.929688 98.71875 C 145.953125 98.730469 145.976562 98.746094 146 98.761719 C 145.453125 99.21875 144.917969 99.703125 144.53125 100.148438 C 143.871094 100.738281 143.121094 101.105469 142.480469 102.03125 C 142.417969 102.085938 142.351562 102.144531 142.300781 102.1875 C 142.113281 102.28125 141.941406 102.363281 141.765625 102.445312 C 141.636719 102.554688 141.519531 102.65625 141.390625 102.765625 C 141.253906 102.644531 141.128906 102.820312 141.015625 103.085938 C 140.703125 103.378906 140.378906 103.683594 140.058594 103.96875 C 139.929688 104.078125 139.800781 104.191406 139.683594 104.289062 C 139.09375 104.78125 138.5 105.261719 137.902344 105.746094 C 137.566406 106.0625 137.226562 106.375 136.882812 106.683594 C 136.828125 106.664062 136.777344 106.65625 136.730469 106.628906 C 136.609375 106.746094 136.503906 106.859375 136.386719 106.988281 C 136.269531 107.085938 136.140625 107.199219 136.011719 107.308594 C 135.847656 107.320312 135.742188 107.40625 135.636719 107.496094 C 135.648438 107.621094 135.636719 107.746094 135.636719 107.878906 C 135.492188 108.003906 135.335938 108.136719 135.195312 108.257812 C 134.976562 108.417969 134.761719 108.585938 134.542969 108.75 C 134.503906 108.78125 134.464844 108.816406 134.425781 108.847656 C 134.277344 108.964844 134.109375 109.078125 133.953125 109.1875 C 133.730469 109.402344 133.523438 109.605469 133.296875 109.8125 C 133.042969 110.015625 132.765625 110.265625 132.921875 110.382812 C 133.046875 110.40625 133.167969 110.421875 133.28125 110.457031 C 133.019531 110.761719 133.328125 110.960938 133.609375 110.878906 C 133.804688 110.683594 134.003906 110.5 134.199219 110.308594 C 134.515625 110.074219 134.828125 109.953125 135.140625 109.632812 C 135.175781 109.511719 135.21875 109.398438 135.265625 109.265625 C 135.511719 109.132812 135.746094 109.160156 135.972656 108.976562 C 136.269531 108.75 136.578125 108.511719 136.871094 108.277344 C 137.292969 108.152344 137.503906 107.757812 137.804688 107.476562 C 137.914062 107.453125 138.035156 107.414062 138.144531 107.386719 C 138.3125 107.242188 138.480469 107.097656 138.648438 106.953125 C 138.6875 106.921875 138.726562 106.886719 138.765625 106.855469 C 138.894531 106.71875 139.039062 106.570312 139.175781 106.4375 C 139.222656 106.5 139.273438 106.566406 139.308594 106.890625 C 139.324219 106.90625 139.328125 106.914062 139.339844 106.929688 C 139.273438 107.117188 139.035156 107.175781 139.066406 107.351562 C 139.066406 107.601562 139.457031 107.332031 139.472656 107.765625 C 138.863281 108.089844 138.582031 108.617188 138.046875 108.984375 C 138.011719 109.078125 137.972656 109.167969 137.953125 109.25 C 138.011719 109.328125 138.070312 109.398438 138.128906 109.480469 C 138.023438 109.535156 137.804688 109.640625 137.851562 109.785156 C 137.722656 109.867188 137.625 109.9375 137.507812 110.011719 C 137.351562 110 137.277344 109.878906 137.039062 109.964844 C 136.519531 110.238281 136.921875 110.339844 136.851562 110.636719 C 136.742188 110.523438 136.394531 110.882812 136.347656 111.070312 C 136.308594 111.101562 136.269531 111.136719 136.230469 111.167969 C 136.070312 111.242188 135.921875 111.300781 135.761719 111.371094 C 135.65625 111.460938 135.554688 111.550781 135.449219 111.636719 C 135.078125 112.128906 135.09375 111.402344 134.644531 112.207031 C 134.660156 112.3125 134.683594 112.425781 134.703125 112.539062 C 134.640625 112.59375 134.574219 112.648438 134.507812 112.703125 C 134.367188 112.878906 134.242188 113.050781 134.101562 113.234375 C 133.796875 113.5625 133.25 113.804688 133.222656 114.238281 C 133.601562 113.980469 133.984375 113.71875 134.378906 113.449219 C 134.457031 113.382812 134.546875 113.304688 134.625 113.238281 C 135.542969 112.5625 136.460938 111.882812 137.390625 111.191406 C 137.558594 111.40625 137.773438 111.074219 137.910156 110.804688 C 138.347656 110.425781 138.777344 110.0625 139.21875 109.683594 C 139.417969 109.777344 139.667969 109.628906 139.703125 109.78125 C 139.851562 109.667969 139.933594 109.519531 140.019531 109.382812 C 140.300781 109.550781 140.496094 109.027344 140.738281 108.835938 C 140.890625 108.730469 141.039062 108.613281 141.195312 108.507812 C 141.253906 108.5 141.308594 108.488281 141.378906 108.46875 C 141.546875 108.378906 141.707031 108.28125 141.871094 108.183594 C 142.035156 107.976562 142.183594 107.78125 142.355469 107.585938 C 142.9375 107.585938 143.011719 106.851562 143.472656 106.5 C 143.605469 106.449219 143.609375 106.589844 143.683594 106.632812 C 144.152344 106.261719 144.355469 105.746094 144.84375 105.457031 C 145.089844 105.023438 145.578125 104.710938 146.058594 104.355469 C 146.035156 104.242188 146.019531 104.136719 145.996094 104.027344 C 146.074219 103.960938 146.164062 103.882812 146.242188 103.816406 C 146.378906 103.882812 146.503906 103.816406 146.519531 103.894531 C 146.660156 103.773438 146.804688 103.652344 146.960938 103.519531 C 147.191406 103.398438 147.570312 103.300781 147.644531 103.066406 C 147.632812 102.800781 148.144531 102.652344 148.105469 102.355469 C 148.15625 102.3125 148.195312 102.277344 148.234375 102.246094 C 148.597656 102.238281 148.902344 101.757812 149.230469 101.640625 C 150.074219 102.339844 150.785156 103.164062 151.738281 103.867188 C 151.773438 103.871094 151.796875 103.867188 151.828125 103.878906 C 151.910156 103.964844 152.0625 104.035156 152.058594 104.148438 C 152.226562 104.3125 152.410156 104.5 152.613281 104.683594 C 152.8125 104.863281 153.023438 105.050781 153.238281 105.234375 C 153.453125 105.414062 153.671875 105.589844 153.886719 105.75 C 154.101562 105.90625 154.320312 106.039062 154.523438 106.152344 C 154.832031 106.382812 155.089844 106.648438 155.386719 106.902344 C 155.6875 107.148438 156.03125 107.375 156.496094 107.539062 C 156.554688 107.582031 156.613281 107.628906 156.660156 107.664062 C 156.773438 107.808594 156.871094 107.945312 156.972656 108.082031 C 156.980469 108.085938 156.988281 108.089844 156.992188 108.09375 C 157.105469 108.175781 157.210938 108.246094 157.328125 108.328125 C 157.242188 108.488281 157.417969 108.550781 157.679688 108.570312 C 157.996094 108.765625 158.328125 108.972656 158.640625 109.171875 C 158.765625 109.253906 158.890625 109.332031 159.003906 109.40625 C 159.566406 109.769531 160.105469 110.164062 160.683594 110.507812 C 161.042969 110.695312 161.402344 110.882812 161.757812 111.078125 C 161.757812 111.136719 161.765625 111.183594 161.75 111.234375 C 161.886719 111.300781 162.019531 111.34375 162.164062 111.398438 C 162.28125 111.460938 162.414062 111.53125 162.546875 111.601562 C 162.605469 111.742188 162.710938 111.800781 162.820312 111.855469 C 162.921875 111.796875 163.03125 111.753906 163.148438 111.699219 C 163.292969 111.777344 163.453125 111.863281 163.601562 111.9375 L 164.230469 112.289062 L 164.355469 112.34375 C 164.5 112.425781 164.65625 112.519531 164.796875 112.605469 C 165.054688 112.703125 165.292969 112.796875 165.554688 112.886719 C 165.816406 113.003906 166.128906 113.121094 166.164062 112.929688 C 166.136719 112.808594 166.105469 112.699219 166.089844 112.585938 C 166.433594 112.660156 166.476562 112.296875 166.308594 112.101562 L 165.632812 111.878906 C 165.335938 111.710938 165.132812 111.492188 164.769531 111.367188 C 164.660156 111.390625 164.550781 111.40625 164.425781 111.425781 C 164.242188 111.273438 164.1875 111.0625 163.96875 110.945312 C 163.691406 110.777344 163.40625 110.601562 163.125 110.445312 C 162.910156 110.121094 162.511719 110.109375 162.203125 109.945312 C 162.152344 109.859375 162.09375 109.761719 162.042969 109.675781 L 161.550781 109.390625 C 161.515625 109.371094 161.476562 109.347656 161.441406 109.324219 C 161.292969 109.261719 161.128906 109.191406 160.988281 109.121094 C 161.03125 109.050781 161.074219 108.984375 161.347656 108.832031 C 161.355469 108.8125 161.363281 108.804688 161.375 108.789062 C 161.550781 108.777344 161.652344 108.964844 161.796875 108.871094 C 162.007812 108.777344 161.691406 108.53125 162.058594 108.351562 C 162.46875 108.761719 162.964844 108.816406 163.40625 109.121094 C 163.496094 109.109375 163.578125 109.105469 163.652344 109.089844 C 163.703125 109.003906 163.746094 108.925781 163.796875 108.839844 C 163.867188 108.910156 164.011719 109.054688 164.117188 108.949219 C 164.21875 109.027344 164.300781 109.082031 164.390625 109.152344 C 164.425781 109.292969 164.34375 109.410156 164.476562 109.582031 C 164.839844 109.914062 164.816406 109.511719 165.074219 109.4375 C 165.011719 109.585938 165.402344 109.714844 165.566406 109.667969 L 165.679688 109.722656 C 165.78125 109.828125 165.875 109.925781 165.980469 110.03125 L 166.285156 110.171875 C 166.789062 110.238281 166.214844 110.589844 166.996094 110.5625 C 167.070312 110.496094 167.152344 110.417969 167.230469 110.34375 L 167.421875 110.421875 C 167.605469 110.453125 167.777344 110.472656 167.964844 110.492188 C 168.320312 110.566406 168.703125 110.875 169.03125 110.660156 C 168.699219 110.492188 168.367188 110.332031 168.03125 110.152344 C 167.953125 110.121094 167.863281 110.082031 167.789062 110.050781 C 167.382812 109.84375 166.976562 109.632812 166.566406 109.421875 C 166.171875 109.191406 165.773438 108.960938 165.371094 108.726562 C 165.496094 108.484375 165.171875 108.460938 164.925781 108.460938 C 164.515625 108.242188 164.117188 108.03125 163.707031 107.8125 C 163.734375 107.605469 163.558594 107.445312 163.679688 107.351562 C 163.554688 107.265625 163.417969 107.257812 163.289062 107.238281 C 163.367188 106.925781 162.898438 106.960938 162.691406 106.828125 C 162.570312 106.738281 162.453125 106.652344 162.332031 106.5625 C 162.3125 106.515625 162.296875 106.46875 162.265625 106.414062 C 162.160156 106.300781 162.050781 106.191406 161.945312 106.085938 C 161.746094 106.019531 161.554688 105.957031 161.359375 105.878906 C 161.3125 105.625 161.132812 105.546875 160.917969 105.5 C 160.703125 105.445312 160.453125 105.414062 160.269531 105.269531 C 160.210938 105.167969 160.332031 105.117188 160.355469 105.035156 C 159.976562 104.746094 159.5 104.75 159.199219 104.394531 C 158.796875 104.308594 158.472656 103.964844 158.113281 103.644531 C 158.015625 103.699219 157.925781 103.746094 157.828125 103.796875 C 157.761719 103.746094 157.6875 103.6875 157.621094 103.636719 C 157.667969 103.492188 157.601562 103.398438 157.667969 103.363281 C 157.546875 103.269531 157.429688 103.171875 157.300781 103.070312 C 157.175781 102.894531 157.0625 102.585938 156.847656 102.582031 C 156.609375 102.667969 156.445312 102.246094 156.1875 102.351562 C 156.144531 102.316406 156.113281 102.289062 156.082031 102.265625 C 156.050781 101.882812 155.4375 101.734375 155.453125 101.367188 C 155.394531 101.273438 155.105469 100.851562 155.050781 101.136719 C 154.605469 100.863281 154.386719 100.589844 153.96875 100.246094 C 153.820312 100.320312 153.65625 100.066406 153.535156 99.914062 C 153.207031 99.671875 152.753906 99.339844 152.507812 98.878906 C 152.398438 98.875 152.324219 98.867188 152.277344 98.84375 C 152.476562 98.683594 152.691406 98.535156 152.925781 98.421875 C 153 98.105469 153.074219 98.03125 153.265625 98.195312 C 153.476562 97.859375 153.492188 97.792969 153.761719 97.640625 C 153.886719 97.441406 154.1875 97.1875 154.382812 97.109375 C 154.246094 96.875 154.730469 96.75 154.925781 96.582031 C 155.042969 96.570312 155.171875 96.542969 155.292969 96.53125 C 155.539062 96.347656 155.167969 96.285156 155.480469 96.105469 C 155.578125 96.011719 155.671875 95.90625 155.769531 95.808594 C 155.835938 95.671875 155.96875 95.570312 156.382812 95.402344 C 156.457031 95.335938 156.550781 95.261719 156.628906 95.195312 C 156.859375 95.046875 157.085938 94.894531 157.3125 94.742188 C 157.351562 94.679688 157.382812 94.640625 157.410156 94.589844 C 157.949219 94.171875 158.484375 93.753906 159.027344 93.339844 C 159.144531 93.242188 159.273438 93.128906 159.402344 93.019531 C 159.558594 92.859375 159.792969 92.742188 159.867188 92.558594 C 159.988281 92.414062 160.125 92.257812 160.246094 92.105469 C 160.390625 92.042969 160.523438 91.933594 160.640625 91.832031 C 160.738281 91.683594 160.835938 91.53125 160.929688 91.402344 C 161.167969 91.210938 161.402344 91.035156 161.640625 90.84375 C 161.964844 90.59375 162.289062 90.34375 162.605469 90.085938 C 162.597656 90.027344 162.589844 89.984375 162.582031 89.921875 C 162.863281 89.867188 163.226562 89.554688 163.238281 89.292969 C 163.335938 89.199219 163.429688 89.09375 163.519531 88.988281 C 163.804688 88.746094 164.089844 88.5 164.386719 88.246094 C 164.765625 87.925781 165.128906 87.617188 165.503906 87.292969 C 165.828125 87.070312 166.003906 86.800781 166.351562 86.386719 C 166.441406 86.28125 166.539062 86.183594 166.632812 86.082031 C 166.761719 85.96875 166.878906 85.871094 167.007812 85.757812 C 167.195312 85.558594 167.386719 85.359375 167.566406 85.148438 C 167.75 84.992188 167.945312 84.828125 168.070312 84.601562 C 168.285156 84.378906 168.488281 84.164062 168.695312 83.933594 C 168.929688 83.734375 169.148438 83.546875 169.382812 83.347656 C 169.542969 83.195312 169.835938 83.015625 169.84375 82.886719 C 169.96875 82.742188 170.105469 82.585938 170.230469 82.441406 C 170.289062 82.347656 170.363281 82.25 170.414062 82.148438 C 170.414062 81.980469 170.429688 81.808594 170.425781 81.640625 C 170.421875 81.578125 170.417969 81.515625 170.398438 81.464844 C 170.320312 81.308594 170.222656 81.152344 170.144531 80.996094 C 170.207031 80.941406 170.261719 80.898438 170.324219 80.84375 C 170.597656 80.691406 170.859375 80.558594 171.128906 80.40625 C 171.132812 80.324219 171.128906 80.234375 171.140625 80.144531 C 171.320312 80.097656 171.578125 79.957031 171.660156 79.753906 C 171.582031 79.625 171.480469 79.527344 171.179688 79.664062 "/></g><g clip-rule="nonzero" clip-path="url(#af0128b9a5)"><g clip-rule="nonzero" clip-path="url(#aa638f873a)"><path style=" stroke:none;fill-rule:nonzero;fill:url(#fece9f90bc);" d="M 201.148438 56.101562 L 201.148438 130.902344 L 275.949219 130.902344 L 275.949219 56.101562 Z M 201.148438 56.101562 "/></g></g><g clip-rule="nonzero" clip-path="url(#ecb0fa8f60)"><path style=" stroke:none;fill-rule:nonzero;fill:#ffffff;fill-opacity:1;" d="M 232.042969 121.613281 C 222.308594 121.601562 214.386719 113.675781 214.382812 103.945312 L 214.382812 102.957031 L 228.808594 102.957031 L 228.808594 104.007812 C 228.835938 105.757812 230.269531 107.175781 232.027344 107.175781 L 243.351562 107.175781 C 245.113281 107.175781 246.546875 105.589844 246.570312 103.839844 L 246.570312 103.777344 C 246.566406 102.015625 245.121094 100.410156 243.351562 100.410156 L 243.25 100.410156 L 232.042969 100.398438 C 222.308594 100.390625 214.386719 92.792969 214.382812 83.058594 L 214.382812 81.90625 L 228.808594 81.90625 L 228.808594 83.125 C 228.835938 84.875 230.269531 86.289062 232.027344 86.289062 L 242.964844 86.289062 L 243.347656 86.277344 C 253.074219 86.292969 260.992188 94.050781 260.996094 103.777344 C 260.996094 108.507812 259.15625 113.109375 255.820312 116.445312 C 252.480469 119.785156 248.042969 121.621094 243.324219 121.621094 C 243.320312 121.621094 232.042969 121.613281 232.042969 121.613281 Z M 229.257812 79.804688 L 219.546875 65.382812 L 253.109375 65.382812 L 262.710938 79.804688 Z M 229.257812 79.804688 "/></g><g clip-rule="nonzero" clip-path="url(#e3093ac295)"><g clip-rule="nonzero" clip-path="url(#fc327cf223)"><path style=" stroke:none;fill-rule:nonzero;fill:url(#7d917068ed);" d="M 201.148438 56.101562 L 201.148438 130.902344 L 275.949219 130.902344 L 275.949219 56.101562 Z M 201.148438 56.101562 "/></g></g><g clip-rule="nonzero" clip-path="url(#51bb517d17)"><path style=" stroke:none;fill-rule:nonzero;fill:#ffffff;fill-opacity:1;" d="M 232.042969 121.613281 C 222.308594 121.601562 214.386719 113.675781 214.382812 103.945312 L 214.382812 102.957031 L 228.808594 102.957031 L 228.808594 104.007812 C 228.835938 105.757812 230.269531 107.175781 232.027344 107.175781 L 243.351562 107.175781 C 245.113281 107.175781 246.546875 105.589844 246.570312 103.839844 L 246.570312 103.777344 C 246.566406 102.015625 245.121094 100.410156 243.351562 100.410156 L 243.25 100.410156 L 232.042969 100.398438 C 222.308594 100.390625 214.386719 92.792969 214.382812 83.058594 L 214.382812 81.90625 L 228.808594 81.90625 L 228.808594 83.125 C 228.835938 84.875 230.269531 86.289062 232.027344 86.289062 L 242.964844 86.289062 L 243.347656 86.277344 C 253.074219 86.292969 260.992188 94.050781 260.996094 103.777344 C 260.996094 108.507812 259.15625 113.109375 255.820312 116.445312 C 252.480469 119.785156 248.042969 121.621094 243.324219 121.621094 C 243.320312 121.621094 232.042969 121.613281 232.042969 121.613281 Z M 229.257812 79.804688 L 219.546875 65.382812 L 253.109375 65.382812 L 262.710938 79.804688 Z M 229.257812 79.804688 "/></g></g></svg>